<?xml version="1.0" encoding="utf-8"?>
<!-- Generator: Adobe Illustrator 27.3.1, SVG Export Plug-In . SVG Version: 6.00 Build 0)  -->
<svg version="1.1" id="Layer_1" xmlns="http://www.w3.org/2000/svg" xmlns:xlink="http://www.w3.org/1999/xlink" x="0px" y="0px"
	 viewBox="0 0 16 16" style="enable-background:new 0 0 16 16;" xml:space="preserve">
<style type="text/css">
	.st0{fill:#4A5158;}
</style>
<path class="st0" d="M8,10c-0.27,0-0.52,0.11-0.71,0.29C7.11,10.48,7,10.73,7,11c0,0.27,0.11,0.52,0.29,0.71
	C7.48,11.89,7.74,12,8,12c0.27,0,0.52-0.11,0.71-0.29C8.9,11.52,9,11.27,9,11c0-0.27-0.11-0.52-0.29-0.71C8.52,10.11,8.27,10,8,10z
	 M8,4C7.87,4,7.75,4.03,7.63,4.08C7.52,4.13,7.41,4.2,7.33,4.3C7.24,4.39,7.18,4.5,7.14,4.62C7.1,4.74,7.09,4.87,7.1,5L7.45,8.5
	c0.01,0.14,0.07,0.27,0.18,0.36C7.73,8.96,7.86,9.01,8,9.01c0.14,0,0.27-0.05,0.37-0.15c0.1-0.09,0.16-0.22,0.18-0.36L8.9,5
	c0.01-0.13,0-0.25-0.04-0.37C8.82,4.5,8.76,4.39,8.67,4.3C8.59,4.2,8.48,4.13,8.37,4.08C8.25,4.03,8.13,4,8,4z M16,8
	c0,2.12-0.84,4.16-2.34,5.66S10.12,16,8,16c-2.12,0-4.16-0.84-5.66-2.34S0,10.12,0,8c0-2.12,0.84-4.16,2.34-5.66S5.88,0,8,0
	c2.12,0,4.16,0.84,5.66,2.34S16,5.88,16,8z"/>
</svg>
