<?xml version="1.0" encoding="utf-8"?>
<!-- Generator: Adobe Illustrator 27.3.1, SVG Export Plug-In . SVG Version: 6.00 Build 0)  -->
<svg version="1.1" id="Layer_1" xmlns="http://www.w3.org/2000/svg" xmlns:xlink="http://www.w3.org/1999/xlink" x="0px" y="0px"
	 width="31.1px" height="48px" viewBox="0 0 31.1 48" enable-background="new 0 0 31.1 48" xml:space="preserve">
<path fill-rule="evenodd" clip-rule="evenodd" fill="#0A3871" d="M15.5,0c5.3,0,9.3,1,11.8,3.1c2.5,2,3.8,4.6,3.8,7.7v26.4
	c0,1.1-0.2,2.2-0.6,3.5s-1.2,2.5-2.3,3.5c-1.1,1.1-2.7,2-4.7,2.7S18.9,48,15.6,48c-3.2,0-5.8-0.4-7.9-1.1c-2-0.7-3.6-1.6-4.7-2.7
	c-1.1-1-1.9-2.2-2.3-3.5s-0.6-2.4-0.6-3.5V33c0-2.2,0.6-4.3,1.8-6.2c1.2-1.9,2.9-3.2,5.1-4c1.1-0.4,2.3-0.7,3.8-1.2
	c1.4-0.5,2.7-1,4-1.4s2.5-0.9,3.4-1.2c0.6-0.2,1.2-0.5,1.8-0.6l1-0.5c0.4-0.2,0.8-0.5,1.2-1c0.4-0.4,0.7-0.9,1-1.4
	c0.3-0.6,0.4-1.2,0.4-1.9v-1.7c0-0.6-0.1-1.2-0.4-1.8C23,9.5,22.5,8.9,22,8.3s-1.4-1-2.4-1.3s-2.3-0.5-3.8-0.5
	c-3.1,0-5.1,0.6-6.2,1.8C8.7,9.4,8.1,10.7,8,12.2c0,0.3-0.3,0.5-0.6,0.5L0.6,13c-0.2,0-0.3-0.1-0.4-0.2S0,12.5,0,12.4v-1.5
	C0,9.4,0.3,8,0.9,6.7s1.5-2.5,2.8-3.4S6.6,1.5,8.5,1C10.4,0.3,12.8,0,15.5,0L15.5,0z M23.4,23.7c0,0.3-0.2,0.5-0.3,0.8
	c-0.2,0.2-0.4,0.4-0.6,0.6c-0.5,0.3-0.9,0.5-1.4,0.6c-0.9,0.3-1.9,0.6-2.9,1c-1.1,0.4-2.1,0.8-2.9,1c-1.1,0.4-2.1,0.7-3.1,1.1
	c-0.7,0.3-1.4,0.7-2.1,1.2c-0.6,0.5-1.1,1.1-1.5,1.8c-0.4,0.8-0.7,1.7-0.7,2.8c0,2.2,0.6,3.9,1.6,5c1.1,1.1,3.1,1.7,6.1,1.7
	c3.1,0,5.1-0.6,6.2-1.8c1.1-1.2,1.6-2.8,1.6-5V23.7L23.4,23.7z"/>
</svg>
