<?xml version="1.0" encoding="utf-8"?>
<!-- Generator: Adobe Illustrator 27.3.1, SVG Export Plug-In . SVG Version: 6.00 Build 0)  -->
<svg version="1.1" id="Layer_1" xmlns="http://www.w3.org/2000/svg" xmlns:xlink="http://www.w3.org/1999/xlink" x="0px" y="0px"
	 width="32px" height="16px" viewBox="0 0 32 16" enable-background="new 0 0 32 16" xml:space="preserve">
<g>
	<path fill="#1F3A6F" d="M29.5,2.5v4.55H32V0l0,0h-7.02v2.5H29.5 M16,8.95V16h7.17v-2.5H18.5V8.95H16z M18.5,7.05V2.5h4.67V0H16
		v7.05H18.5z M24.98,16H32V8.95h-2.5v4.55h-4.52V16z"/>
	<g display="none">
		
			<rect x="26.908" y="8.87" transform="matrix(0.7071 -0.7071 0.7071 0.7071 -0.3156 23.4576)" display="inline" fill="#1F3A6F" width="2.5" height="6.48"/>
	</g>
	<g display="none">
		
			<rect x="18.673" y="0.522" transform="matrix(0.7071 -0.7071 0.7071 0.7071 3.09 15.2247)" display="inline" fill="#1F3A6F" width="2.5" height="6.72"/>
	</g>
	<g display="none">
		
			<rect x="24.921" y="2.639" transform="matrix(0.7071 -0.7071 0.7071 0.7071 5.4984 21.0516)" display="inline" fill="#1F3A6F" width="6.48" height="2.5"/>
	</g>
	<g display="none">
		
			<rect x="16.828" y="10.761" transform="matrix(0.7071 -0.7071 0.7071 0.7071 -2.6252 17.6835)" display="inline" fill="#1F3A6F" width="6.41" height="2.5"/>
	</g>
</g>
<g>
	<polygon fill="#1F3A6F" points="8.98,0 8.98,2.5 11.78,2.5 8.99,5.29 10.75,7.06 13.5,4.31 13.5,7.05 16,7.05 16,0 	"/>
	<polygon fill="#1F3A6F" points="7.17,2.5 7.17,0 0,0 0,7.05 2.5,7.05 2.5,4.22 5.42,7.14 7.19,5.37 4.31,2.5 	"/>
	<polygon fill="#1F3A6F" points="13.5,11.69 10.75,8.94 8.99,10.71 11.78,13.5 8.98,13.5 8.98,16 16,16 16,8.95 13.5,8.95 	"/>
	<polygon fill="#1F3A6F" points="5.42,8.86 2.5,11.78 2.5,8.95 0,8.95 0,16 7.17,16 7.17,13.5 4.31,13.5 7.19,10.63 	"/>
</g>
</svg>
